<mxfile host="Electron" agent="Mozilla/5.0 (Windows NT 10.0; Win64; x64) AppleWebKit/537.36 (KHTML, like Gecko) draw.io/27.0.5 Chrome/134.0.6998.205 Electron/35.3.0 Safari/537.36" version="27.0.5">
  <diagram id="N5d8Xmekq0FIWtA8UG6T" name="arcitecture">
    <mxGraphModel dx="2066" dy="1202" grid="1" gridSize="10" guides="1" tooltips="1" connect="1" arrows="1" fold="1" page="1" pageScale="1" pageWidth="827" pageHeight="1169" math="0" shadow="0">
      <root>
        <mxCell id="0" />
        <mxCell id="1" parent="0" />
        <mxCell id="L_ru7mrTNJRelr6hdhup-16" value="" style="rounded=1;whiteSpace=wrap;html=1;fillColor=#f5f5f5;fontColor=#333333;strokeColor=#666666;" parent="1" vertex="1">
          <mxGeometry x="90" y="410" width="200" height="190" as="geometry" />
        </mxCell>
        <mxCell id="L_ru7mrTNJRelr6hdhup-7" value="" style="rounded=1;whiteSpace=wrap;html=1;" parent="1" vertex="1">
          <mxGeometry x="80" y="400" width="200" height="190" as="geometry" />
        </mxCell>
        <mxCell id="L_ru7mrTNJRelr6hdhup-14" value="mserver" style="rounded=1;whiteSpace=wrap;html=1;fillColor=#f8cecc;strokeColor=#b85450;rotation=27;imageHeight=24;fixDash=0;imageWidth=24;" parent="1" vertex="1">
          <mxGeometry x="94" y="441" width="80" height="50" as="geometry" />
        </mxCell>
        <mxCell id="L_ru7mrTNJRelr6hdhup-13" value="mserver" style="rounded=1;whiteSpace=wrap;html=1;fillColor=#f8cecc;strokeColor=#b85450;rotation=-90;imageHeight=24;fixDash=0;imageWidth=24;" parent="1" vertex="1">
          <mxGeometry x="140" y="518.26" width="80" height="50" as="geometry" />
        </mxCell>
        <mxCell id="tsfLYOpmj_f98KLFveLr-18" value="" style="rounded=1;whiteSpace=wrap;html=1;dashed=1;arcSize=7;" parent="1" vertex="1">
          <mxGeometry x="190" y="110" width="280" height="160" as="geometry" />
        </mxCell>
        <mxCell id="tsfLYOpmj_f98KLFveLr-4" style="edgeStyle=orthogonalEdgeStyle;rounded=0;orthogonalLoop=1;jettySize=auto;html=1;entryX=1.011;entryY=0.598;entryDx=0;entryDy=0;curved=1;entryPerimeter=0;" parent="1" source="tsfLYOpmj_f98KLFveLr-1" target="cyJrG0wH-FrEocP2KH8U-2" edge="1">
          <mxGeometry relative="1" as="geometry">
            <mxPoint x="134.0300000000001" y="70" as="targetPoint" />
          </mxGeometry>
        </mxCell>
        <mxCell id="tsfLYOpmj_f98KLFveLr-1" value="" style="rounded=1;whiteSpace=wrap;html=1;fillColor=#f5f5f5;fontColor=#333333;strokeColor=#666666;" parent="1" vertex="1">
          <mxGeometry x="200" y="120" width="80" height="40" as="geometry" />
        </mxCell>
        <mxCell id="tsfLYOpmj_f98KLFveLr-2" value="rserver" style="rounded=1;whiteSpace=wrap;html=1;fillColor=#f8cecc;strokeColor=#b85450;" parent="1" vertex="1">
          <mxGeometry x="210" y="130" width="80" height="40" as="geometry" />
        </mxCell>
        <mxCell id="tsfLYOpmj_f98KLFveLr-13" style="edgeStyle=orthogonalEdgeStyle;curved=1;rounded=0;orthogonalLoop=1;jettySize=auto;html=1;entryX=0.5;entryY=1;entryDx=0;entryDy=0;exitX=0;exitY=0.5;exitDx=0;exitDy=0;" parent="1" source="tsfLYOpmj_f98KLFveLr-7" target="tsfLYOpmj_f98KLFveLr-2" edge="1">
          <mxGeometry relative="1" as="geometry" />
        </mxCell>
        <mxCell id="tsfLYOpmj_f98KLFveLr-7" value="mserver" style="rounded=1;whiteSpace=wrap;html=1;fillColor=#f5f5f5;fontColor=#333333;strokeColor=#666666;" parent="1" vertex="1">
          <mxGeometry x="360" y="200" width="80" height="40" as="geometry" />
        </mxCell>
        <mxCell id="tsfLYOpmj_f98KLFveLr-8" value="" style="rounded=1;whiteSpace=wrap;html=1;fillColor=#f5f5f5;fontColor=#333333;strokeColor=#666666;" parent="1" vertex="1">
          <mxGeometry x="370" y="210" width="80" height="40" as="geometry" />
        </mxCell>
        <mxCell id="tsfLYOpmj_f98KLFveLr-9" value="mserver" style="rounded=1;whiteSpace=wrap;html=1;fillColor=#f8cecc;strokeColor=#b85450;" parent="1" vertex="1">
          <mxGeometry x="380" y="220" width="80" height="40" as="geometry" />
        </mxCell>
        <mxCell id="tsfLYOpmj_f98KLFveLr-14" style="edgeStyle=orthogonalEdgeStyle;curved=1;rounded=0;orthogonalLoop=1;jettySize=auto;html=1;entryX=1;entryY=0.25;entryDx=0;entryDy=0;" parent="1" source="tsfLYOpmj_f98KLFveLr-10" target="tsfLYOpmj_f98KLFveLr-2" edge="1">
          <mxGeometry relative="1" as="geometry">
            <mxPoint x="250" y="170" as="targetPoint" />
          </mxGeometry>
        </mxCell>
        <mxCell id="tsfLYOpmj_f98KLFveLr-10" value="mserver" style="rounded=1;whiteSpace=wrap;html=1;fillColor=#f5f5f5;fontColor=#333333;strokeColor=#666666;" parent="1" vertex="1">
          <mxGeometry x="360" y="120" width="80" height="40" as="geometry" />
        </mxCell>
        <mxCell id="tsfLYOpmj_f98KLFveLr-11" value="" style="rounded=1;whiteSpace=wrap;html=1;fillColor=#f5f5f5;fontColor=#333333;strokeColor=#666666;" parent="1" vertex="1">
          <mxGeometry x="370" y="130" width="80" height="40" as="geometry" />
        </mxCell>
        <mxCell id="tsfLYOpmj_f98KLFveLr-12" value="cserver" style="rounded=1;whiteSpace=wrap;html=1;fillColor=#f8cecc;strokeColor=#b85450;" parent="1" vertex="1">
          <mxGeometry x="380" y="140" width="80" height="40" as="geometry" />
        </mxCell>
        <mxCell id="tsfLYOpmj_f98KLFveLr-17" style="edgeStyle=orthogonalEdgeStyle;curved=1;rounded=0;orthogonalLoop=1;jettySize=auto;html=1;entryX=0.5;entryY=1;entryDx=0;entryDy=0;" parent="1" source="tsfLYOpmj_f98KLFveLr-15" target="cyJrG0wH-FrEocP2KH8U-2" edge="1">
          <mxGeometry relative="1" as="geometry">
            <mxPoint x="100.49441000000002" y="92" as="targetPoint" />
          </mxGeometry>
        </mxCell>
        <mxCell id="tsfLYOpmj_f98KLFveLr-19" style="edgeStyle=orthogonalEdgeStyle;curved=1;rounded=0;orthogonalLoop=1;jettySize=auto;html=1;entryX=0;entryY=0.813;entryDx=0;entryDy=0;entryPerimeter=0;" parent="1" source="tsfLYOpmj_f98KLFveLr-15" target="tsfLYOpmj_f98KLFveLr-18" edge="1">
          <mxGeometry relative="1" as="geometry" />
        </mxCell>
        <mxCell id="tsfLYOpmj_f98KLFveLr-15" value="client" style="rounded=1;whiteSpace=wrap;html=1;fillColor=#f8cecc;strokeColor=#b85450;" parent="1" vertex="1">
          <mxGeometry x="80" y="220" width="80" height="40" as="geometry" />
        </mxCell>
        <mxCell id="cyJrG0wH-FrEocP2KH8U-4" value="" style="group" parent="1" vertex="1" connectable="0">
          <mxGeometry x="80" y="110" width="80" height="50" as="geometry" />
        </mxCell>
        <mxCell id="cyJrG0wH-FrEocP2KH8U-2" value="" style="rounded=1;whiteSpace=wrap;html=1;" parent="cyJrG0wH-FrEocP2KH8U-4" vertex="1">
          <mxGeometry width="80" height="50" as="geometry" />
        </mxCell>
        <mxCell id="cyJrG0wH-FrEocP2KH8U-3" value="" style="shape=image;verticalLabelPosition=bottom;labelBackgroundColor=default;verticalAlign=top;aspect=fixed;imageAspect=0;image=https://upload.wikimedia.org/wikipedia/commons/thumb/7/77/Apache_ZooKeeper_logo.svg/1200px-Apache_ZooKeeper_logo.svg.png;imageBorder=none;" parent="cyJrG0wH-FrEocP2KH8U-4" vertex="1">
          <mxGeometry x="2.9799999999999898" y="5" width="74.03" height="40" as="geometry" />
        </mxCell>
        <mxCell id="CoLOjZZS22xwEA2vwv3K-34" style="edgeStyle=orthogonalEdgeStyle;rounded=0;orthogonalLoop=1;jettySize=auto;html=1;entryX=0.5;entryY=0;entryDx=0;entryDy=0;" parent="1" source="CoLOjZZS22xwEA2vwv3K-1" target="tsfLYOpmj_f98KLFveLr-18" edge="1">
          <mxGeometry relative="1" as="geometry" />
        </mxCell>
        <mxCell id="CoLOjZZS22xwEA2vwv3K-1" value="" style="rounded=1;whiteSpace=wrap;html=1;" parent="1" vertex="1">
          <mxGeometry x="190" y="40" width="280" height="40" as="geometry" />
        </mxCell>
        <mxCell id="CoLOjZZS22xwEA2vwv3K-2" value="" style="rounded=1;whiteSpace=wrap;html=1;fillColor=#d5e8d4;strokeColor=#82b366;" parent="1" vertex="1">
          <mxGeometry x="200" y="45" width="10" height="10" as="geometry" />
        </mxCell>
        <mxCell id="CoLOjZZS22xwEA2vwv3K-3" value="" style="rounded=1;whiteSpace=wrap;html=1;fillColor=#d5e8d4;strokeColor=#82b366;" parent="1" vertex="1">
          <mxGeometry x="220" y="45" width="10" height="10" as="geometry" />
        </mxCell>
        <mxCell id="CoLOjZZS22xwEA2vwv3K-4" value="" style="rounded=1;whiteSpace=wrap;html=1;fillColor=#d5e8d4;strokeColor=#82b366;" parent="1" vertex="1">
          <mxGeometry x="200" y="65" width="10" height="10" as="geometry" />
        </mxCell>
        <mxCell id="CoLOjZZS22xwEA2vwv3K-5" value="" style="rounded=1;whiteSpace=wrap;html=1;fillColor=#d5e8d4;strokeColor=#82b366;" parent="1" vertex="1">
          <mxGeometry x="220" y="65" width="10" height="10" as="geometry" />
        </mxCell>
        <mxCell id="CoLOjZZS22xwEA2vwv3K-6" value="" style="rounded=1;whiteSpace=wrap;html=1;fillColor=#d5e8d4;strokeColor=#82b366;" parent="1" vertex="1">
          <mxGeometry x="240" y="45" width="10" height="10" as="geometry" />
        </mxCell>
        <mxCell id="CoLOjZZS22xwEA2vwv3K-7" value="" style="rounded=1;whiteSpace=wrap;html=1;fillColor=#d5e8d4;strokeColor=#82b366;" parent="1" vertex="1">
          <mxGeometry x="260" y="45" width="10" height="10" as="geometry" />
        </mxCell>
        <mxCell id="CoLOjZZS22xwEA2vwv3K-8" value="" style="rounded=1;whiteSpace=wrap;html=1;fillColor=#d5e8d4;strokeColor=#82b366;" parent="1" vertex="1">
          <mxGeometry x="240" y="65" width="10" height="10" as="geometry" />
        </mxCell>
        <mxCell id="CoLOjZZS22xwEA2vwv3K-9" value="" style="rounded=1;whiteSpace=wrap;html=1;fillColor=#d5e8d4;strokeColor=#82b366;" parent="1" vertex="1">
          <mxGeometry x="260" y="65" width="10" height="10" as="geometry" />
        </mxCell>
        <mxCell id="CoLOjZZS22xwEA2vwv3K-10" value="" style="rounded=1;whiteSpace=wrap;html=1;fillColor=#d5e8d4;strokeColor=#82b366;" parent="1" vertex="1">
          <mxGeometry x="280" y="45" width="10" height="10" as="geometry" />
        </mxCell>
        <mxCell id="CoLOjZZS22xwEA2vwv3K-11" value="" style="rounded=1;whiteSpace=wrap;html=1;fillColor=#d5e8d4;strokeColor=#82b366;" parent="1" vertex="1">
          <mxGeometry x="300" y="45" width="10" height="10" as="geometry" />
        </mxCell>
        <mxCell id="CoLOjZZS22xwEA2vwv3K-12" value="" style="rounded=1;whiteSpace=wrap;html=1;fillColor=#d5e8d4;strokeColor=#82b366;" parent="1" vertex="1">
          <mxGeometry x="280" y="65" width="10" height="10" as="geometry" />
        </mxCell>
        <mxCell id="CoLOjZZS22xwEA2vwv3K-13" value="" style="rounded=1;whiteSpace=wrap;html=1;fillColor=#d5e8d4;strokeColor=#82b366;" parent="1" vertex="1">
          <mxGeometry x="300" y="65" width="10" height="10" as="geometry" />
        </mxCell>
        <mxCell id="CoLOjZZS22xwEA2vwv3K-14" value="" style="rounded=1;whiteSpace=wrap;html=1;fillColor=#d5e8d4;strokeColor=#82b366;" parent="1" vertex="1">
          <mxGeometry x="320" y="45" width="10" height="10" as="geometry" />
        </mxCell>
        <mxCell id="CoLOjZZS22xwEA2vwv3K-15" value="" style="rounded=1;whiteSpace=wrap;html=1;fillColor=#d5e8d4;strokeColor=#82b366;" parent="1" vertex="1">
          <mxGeometry x="340" y="45" width="10" height="10" as="geometry" />
        </mxCell>
        <mxCell id="CoLOjZZS22xwEA2vwv3K-16" value="" style="rounded=1;whiteSpace=wrap;html=1;fillColor=#d5e8d4;strokeColor=#82b366;" parent="1" vertex="1">
          <mxGeometry x="320" y="65" width="10" height="10" as="geometry" />
        </mxCell>
        <mxCell id="CoLOjZZS22xwEA2vwv3K-17" value="" style="rounded=1;whiteSpace=wrap;html=1;fillColor=#d5e8d4;strokeColor=#82b366;" parent="1" vertex="1">
          <mxGeometry x="340" y="65" width="10" height="10" as="geometry" />
        </mxCell>
        <mxCell id="CoLOjZZS22xwEA2vwv3K-18" value="" style="rounded=1;whiteSpace=wrap;html=1;fillColor=#d5e8d4;strokeColor=#82b366;" parent="1" vertex="1">
          <mxGeometry x="360" y="45" width="10" height="10" as="geometry" />
        </mxCell>
        <mxCell id="CoLOjZZS22xwEA2vwv3K-19" value="" style="rounded=1;whiteSpace=wrap;html=1;fillColor=#d5e8d4;strokeColor=#82b366;" parent="1" vertex="1">
          <mxGeometry x="380" y="45" width="10" height="10" as="geometry" />
        </mxCell>
        <mxCell id="CoLOjZZS22xwEA2vwv3K-20" value="" style="rounded=1;whiteSpace=wrap;html=1;fillColor=#d5e8d4;strokeColor=#82b366;" parent="1" vertex="1">
          <mxGeometry x="360" y="65" width="10" height="10" as="geometry" />
        </mxCell>
        <mxCell id="CoLOjZZS22xwEA2vwv3K-21" value="" style="rounded=1;whiteSpace=wrap;html=1;fillColor=#d5e8d4;strokeColor=#82b366;" parent="1" vertex="1">
          <mxGeometry x="380" y="65" width="10" height="10" as="geometry" />
        </mxCell>
        <mxCell id="CoLOjZZS22xwEA2vwv3K-22" value="" style="rounded=1;whiteSpace=wrap;html=1;fillColor=#d5e8d4;strokeColor=#82b366;" parent="1" vertex="1">
          <mxGeometry x="400" y="45" width="10" height="10" as="geometry" />
        </mxCell>
        <mxCell id="CoLOjZZS22xwEA2vwv3K-23" value="" style="rounded=1;whiteSpace=wrap;html=1;fillColor=#d5e8d4;strokeColor=#82b366;" parent="1" vertex="1">
          <mxGeometry x="420" y="45" width="10" height="10" as="geometry" />
        </mxCell>
        <mxCell id="CoLOjZZS22xwEA2vwv3K-24" value="" style="rounded=1;whiteSpace=wrap;html=1;fillColor=#d5e8d4;strokeColor=#82b366;" parent="1" vertex="1">
          <mxGeometry x="400" y="65" width="10" height="10" as="geometry" />
        </mxCell>
        <mxCell id="CoLOjZZS22xwEA2vwv3K-25" value="" style="rounded=1;whiteSpace=wrap;html=1;fillColor=#d5e8d4;strokeColor=#82b366;" parent="1" vertex="1">
          <mxGeometry x="420" y="65" width="10" height="10" as="geometry" />
        </mxCell>
        <mxCell id="CoLOjZZS22xwEA2vwv3K-26" value="" style="rounded=1;whiteSpace=wrap;html=1;fillColor=#d5e8d4;strokeColor=#82b366;" parent="1" vertex="1">
          <mxGeometry x="440" y="45" width="10" height="10" as="geometry" />
        </mxCell>
        <mxCell id="CoLOjZZS22xwEA2vwv3K-28" value="" style="rounded=1;whiteSpace=wrap;html=1;fillColor=#d5e8d4;strokeColor=#82b366;" parent="1" vertex="1">
          <mxGeometry x="440" y="65" width="10" height="10" as="geometry" />
        </mxCell>
        <mxCell id="CoLOjZZS22xwEA2vwv3K-35" value="objects" style="text;html=1;align=center;verticalAlign=middle;resizable=0;points=[];autosize=1;strokeColor=none;fillColor=none;" parent="1" vertex="1">
          <mxGeometry x="330" y="80" width="60" height="30" as="geometry" />
        </mxCell>
        <mxCell id="CoLOjZZS22xwEA2vwv3K-63" style="edgeStyle=orthogonalEdgeStyle;rounded=0;orthogonalLoop=1;jettySize=auto;html=1;entryX=0.5;entryY=1;entryDx=0;entryDy=0;" parent="1" source="CoLOjZZS22xwEA2vwv3K-36" target="tsfLYOpmj_f98KLFveLr-18" edge="1">
          <mxGeometry relative="1" as="geometry" />
        </mxCell>
        <mxCell id="CoLOjZZS22xwEA2vwv3K-36" value="" style="rounded=1;whiteSpace=wrap;html=1;" parent="1" vertex="1">
          <mxGeometry x="190" y="300" width="280" height="40" as="geometry" />
        </mxCell>
        <mxCell id="CoLOjZZS22xwEA2vwv3K-37" value="" style="rounded=1;whiteSpace=wrap;html=1;fillColor=#d5e8d4;strokeColor=#82b366;" parent="1" vertex="1">
          <mxGeometry x="200" y="305" width="10" height="10" as="geometry" />
        </mxCell>
        <mxCell id="CoLOjZZS22xwEA2vwv3K-38" value="" style="rounded=1;whiteSpace=wrap;html=1;fillColor=#d5e8d4;strokeColor=#82b366;" parent="1" vertex="1">
          <mxGeometry x="220" y="305" width="10" height="10" as="geometry" />
        </mxCell>
        <mxCell id="CoLOjZZS22xwEA2vwv3K-39" value="" style="rounded=1;whiteSpace=wrap;html=1;fillColor=#d5e8d4;strokeColor=#82b366;" parent="1" vertex="1">
          <mxGeometry x="200" y="325" width="10" height="10" as="geometry" />
        </mxCell>
        <mxCell id="CoLOjZZS22xwEA2vwv3K-40" value="" style="rounded=1;whiteSpace=wrap;html=1;fillColor=#d5e8d4;strokeColor=#82b366;" parent="1" vertex="1">
          <mxGeometry x="220" y="325" width="10" height="10" as="geometry" />
        </mxCell>
        <mxCell id="CoLOjZZS22xwEA2vwv3K-41" value="" style="rounded=1;whiteSpace=wrap;html=1;fillColor=#d5e8d4;strokeColor=#82b366;" parent="1" vertex="1">
          <mxGeometry x="240" y="305" width="10" height="10" as="geometry" />
        </mxCell>
        <mxCell id="CoLOjZZS22xwEA2vwv3K-42" value="" style="rounded=1;whiteSpace=wrap;html=1;fillColor=#d5e8d4;strokeColor=#82b366;" parent="1" vertex="1">
          <mxGeometry x="260" y="305" width="10" height="10" as="geometry" />
        </mxCell>
        <mxCell id="CoLOjZZS22xwEA2vwv3K-43" value="" style="rounded=1;whiteSpace=wrap;html=1;fillColor=#d5e8d4;strokeColor=#82b366;" parent="1" vertex="1">
          <mxGeometry x="240" y="325" width="10" height="10" as="geometry" />
        </mxCell>
        <mxCell id="CoLOjZZS22xwEA2vwv3K-44" value="" style="rounded=1;whiteSpace=wrap;html=1;fillColor=#d5e8d4;strokeColor=#82b366;" parent="1" vertex="1">
          <mxGeometry x="260" y="325" width="10" height="10" as="geometry" />
        </mxCell>
        <mxCell id="CoLOjZZS22xwEA2vwv3K-45" value="" style="rounded=1;whiteSpace=wrap;html=1;fillColor=#d5e8d4;strokeColor=#82b366;" parent="1" vertex="1">
          <mxGeometry x="280" y="305" width="10" height="10" as="geometry" />
        </mxCell>
        <mxCell id="CoLOjZZS22xwEA2vwv3K-46" value="" style="rounded=1;whiteSpace=wrap;html=1;fillColor=#d5e8d4;strokeColor=#82b366;" parent="1" vertex="1">
          <mxGeometry x="300" y="305" width="10" height="10" as="geometry" />
        </mxCell>
        <mxCell id="CoLOjZZS22xwEA2vwv3K-47" value="" style="rounded=1;whiteSpace=wrap;html=1;fillColor=#d5e8d4;strokeColor=#82b366;" parent="1" vertex="1">
          <mxGeometry x="280" y="325" width="10" height="10" as="geometry" />
        </mxCell>
        <mxCell id="CoLOjZZS22xwEA2vwv3K-48" value="" style="rounded=1;whiteSpace=wrap;html=1;fillColor=#d5e8d4;strokeColor=#82b366;" parent="1" vertex="1">
          <mxGeometry x="300" y="325" width="10" height="10" as="geometry" />
        </mxCell>
        <mxCell id="CoLOjZZS22xwEA2vwv3K-49" value="" style="rounded=1;whiteSpace=wrap;html=1;fillColor=#d5e8d4;strokeColor=#82b366;" parent="1" vertex="1">
          <mxGeometry x="320" y="305" width="10" height="10" as="geometry" />
        </mxCell>
        <mxCell id="CoLOjZZS22xwEA2vwv3K-50" value="" style="rounded=1;whiteSpace=wrap;html=1;fillColor=#d5e8d4;strokeColor=#82b366;" parent="1" vertex="1">
          <mxGeometry x="340" y="305" width="10" height="10" as="geometry" />
        </mxCell>
        <mxCell id="CoLOjZZS22xwEA2vwv3K-51" value="" style="rounded=1;whiteSpace=wrap;html=1;fillColor=#d5e8d4;strokeColor=#82b366;" parent="1" vertex="1">
          <mxGeometry x="320" y="325" width="10" height="10" as="geometry" />
        </mxCell>
        <mxCell id="CoLOjZZS22xwEA2vwv3K-52" value="" style="rounded=1;whiteSpace=wrap;html=1;fillColor=#d5e8d4;strokeColor=#82b366;" parent="1" vertex="1">
          <mxGeometry x="340" y="325" width="10" height="10" as="geometry" />
        </mxCell>
        <mxCell id="CoLOjZZS22xwEA2vwv3K-53" value="" style="rounded=1;whiteSpace=wrap;html=1;fillColor=#d5e8d4;strokeColor=#82b366;" parent="1" vertex="1">
          <mxGeometry x="360" y="305" width="10" height="10" as="geometry" />
        </mxCell>
        <mxCell id="CoLOjZZS22xwEA2vwv3K-54" value="" style="rounded=1;whiteSpace=wrap;html=1;fillColor=#d5e8d4;strokeColor=#82b366;" parent="1" vertex="1">
          <mxGeometry x="380" y="305" width="10" height="10" as="geometry" />
        </mxCell>
        <mxCell id="CoLOjZZS22xwEA2vwv3K-55" value="" style="rounded=1;whiteSpace=wrap;html=1;fillColor=#d5e8d4;strokeColor=#82b366;" parent="1" vertex="1">
          <mxGeometry x="360" y="325" width="10" height="10" as="geometry" />
        </mxCell>
        <mxCell id="CoLOjZZS22xwEA2vwv3K-56" value="" style="rounded=1;whiteSpace=wrap;html=1;fillColor=#d5e8d4;strokeColor=#82b366;" parent="1" vertex="1">
          <mxGeometry x="380" y="325" width="10" height="10" as="geometry" />
        </mxCell>
        <mxCell id="CoLOjZZS22xwEA2vwv3K-57" value="" style="rounded=1;whiteSpace=wrap;html=1;fillColor=#d5e8d4;strokeColor=#82b366;" parent="1" vertex="1">
          <mxGeometry x="400" y="305" width="10" height="10" as="geometry" />
        </mxCell>
        <mxCell id="CoLOjZZS22xwEA2vwv3K-58" value="" style="rounded=1;whiteSpace=wrap;html=1;fillColor=#d5e8d4;strokeColor=#82b366;" parent="1" vertex="1">
          <mxGeometry x="420" y="305" width="10" height="10" as="geometry" />
        </mxCell>
        <mxCell id="CoLOjZZS22xwEA2vwv3K-59" value="" style="rounded=1;whiteSpace=wrap;html=1;fillColor=#d5e8d4;strokeColor=#82b366;" parent="1" vertex="1">
          <mxGeometry x="400" y="325" width="10" height="10" as="geometry" />
        </mxCell>
        <mxCell id="CoLOjZZS22xwEA2vwv3K-60" value="" style="rounded=1;whiteSpace=wrap;html=1;fillColor=#d5e8d4;strokeColor=#82b366;" parent="1" vertex="1">
          <mxGeometry x="420" y="325" width="10" height="10" as="geometry" />
        </mxCell>
        <mxCell id="CoLOjZZS22xwEA2vwv3K-61" value="" style="rounded=1;whiteSpace=wrap;html=1;fillColor=#d5e8d4;strokeColor=#82b366;" parent="1" vertex="1">
          <mxGeometry x="440" y="305" width="10" height="10" as="geometry" />
        </mxCell>
        <mxCell id="CoLOjZZS22xwEA2vwv3K-62" value="" style="rounded=1;whiteSpace=wrap;html=1;fillColor=#d5e8d4;strokeColor=#82b366;" parent="1" vertex="1">
          <mxGeometry x="440" y="325" width="10" height="10" as="geometry" />
        </mxCell>
        <mxCell id="CoLOjZZS22xwEA2vwv3K-64" value="objects" style="text;html=1;align=center;verticalAlign=middle;resizable=0;points=[];autosize=1;strokeColor=none;fillColor=none;" parent="1" vertex="1">
          <mxGeometry x="330" y="270" width="60" height="30" as="geometry" />
        </mxCell>
        <mxCell id="L_ru7mrTNJRelr6hdhup-1" value="mserver" style="rounded=1;whiteSpace=wrap;html=1;fillColor=#f8cecc;strokeColor=#b85450;" parent="1" vertex="1">
          <mxGeometry x="390" y="230" width="80" height="40" as="geometry" />
        </mxCell>
        <mxCell id="L_ru7mrTNJRelr6hdhup-4" value="mserver" style="rounded=1;whiteSpace=wrap;html=1;fillColor=#f8cecc;strokeColor=#b85450;rotation=333;imageHeight=24;fixDash=0;imageWidth=24;" parent="1" vertex="1">
          <mxGeometry x="185" y="440" width="80" height="50" as="geometry" />
        </mxCell>
        <mxCell id="L_ru7mrTNJRelr6hdhup-11" value="" style="verticalLabelPosition=bottom;verticalAlign=top;html=1;shape=mxgraph.basic.acute_triangle;dx=0.5;" parent="1" vertex="1">
          <mxGeometry x="160" y="463.26" width="40" height="40" as="geometry" />
        </mxCell>
        <mxCell id="L_ru7mrTNJRelr6hdhup-12" value="raft" style="text;html=1;align=center;verticalAlign=middle;resizable=0;points=[];autosize=1;strokeColor=none;fillColor=none;" parent="1" vertex="1">
          <mxGeometry x="160" y="473.26" width="40" height="30" as="geometry" />
        </mxCell>
        <mxCell id="L_ru7mrTNJRelr6hdhup-15" value="pool" style="text;html=1;align=center;verticalAlign=middle;resizable=0;points=[];autosize=1;strokeColor=none;fillColor=none;" parent="1" vertex="1">
          <mxGeometry x="155" y="400" width="50" height="30" as="geometry" />
        </mxCell>
      </root>
    </mxGraphModel>
  </diagram>
</mxfile>
